#!OML:ASF I:\Actors\actors\Patient Classification 1\Patient 1\Session 1\Subject1.ASF
:FULLY-SPECIFIED
:DEGREES
297
root -0.36959 17.5324 7.01595 4.81247 4.34978 -3.43128
lowerback 3.16283 -0.702294 6.33947
upperback -9.61372 -0.245211 0.973829
thorax -12.2175 -0.660548 -2.44874
lowerneck -10.2712 -2.12408 -0.7405
upperneck 20.9162 -3.71996 4.07332
head 8.26888 -1.42337 1.10423
rclavicle 2.83268e-015 -1.13307e-014
rhumerus -56.5969 36.141 -114.215
rradius 87.2837
rwrist -26.4593
rhand 18.2184 -55.6931
rfingers 7.12502
rthumb 42.872 -79.9841
lclavicle 2.83268e-015 -1.13307e-014
lhumerus -58.5529 -24.8691 113.514
lradius 81.1803
lwrist 29.4569
lhand -6.91629 11.252
lfingers 7.12502
lthumb 18.9513 40.3487
rfemur -2.47312 17.096 19.6119
rtibia 4.11908
rfoot -12.1306 -21.4035
rtoes 3.11422
lfemur 0.572639 -34.4402 -17.7829
ltibia 1.63572
lfoot -9.79572 35.818
ltoes -4.34633
298
root -0.287564 17.5271 7.01051 4.84114 3.99856 -3.33963
lowerback 3.14123 -0.764457 6.63388
upperback -9.60458 -0.315844 0.871936
thorax -12.2116 -0.729363 -2.71408
lowerneck -10.3451 -1.98173 -0.541778
upperneck 21.2585 -3.56138 4.00163
head 8.38883 -1.33344 1.06339
rclavicle -2.98177e-015 1.43125e-014
rhumerus -56.5245 36.2944 -114.401
rradius 87.1526
rwrist -26.5672
rhand 18.8099 -55.5488
rfingers 7.12502
rthumb 43.4249 -79.6429
lclavicle -2.98177e-015 1.43125e-014
lhumerus -58.6667 -24.4588 113.014
lradius 81.5214
lwrist 29.9174
lhand -6.69526 11.6798
lfingers 7.12502
lthumb 19.1639 40.7556
rfemur -2.56337 17.2018 19.1101
rtibia 4.05169
rfoot -11.9281 -21.2911
rtoes 2.49394
lfemur 0.513254 -34.2907 -18.1956
ltibia 1.74862
lfoot -9.80581 35.8965
ltoes -4.03944
299
root -0.207878 17.5234 7.00575 4.86214 3.65733 -3.29971
lowerback 3.1223 -0.824498 6.93007
upperback -9.62068 -0.379788 0.792123
thorax -12.2377 -0.795214 -2.95698
lowerneck -10.3262 -1.84665 -0.422585
upperneck 21.5649 -3.41865 4.03431
head 8.48414 -1.24868 1.07019
rclavicle 6.95746e-015 5.36719e-015
rhumerus -56.5001 36.4646 -114.623
rradius 87.0512
rwrist -26.7601
rhand 19.0766 -55.304
rfingers 7.12502
rthumb 43.6739 -79.3074
lclavicle 6.95746e-015 5.36719e-015
lhumerus -58.8165 -24.1794 112.59
lradius 81.8946
lwrist 30.0898
lhand -6.43993 12.1092
lfingers 7.12502
lthumb 19.4094 41.1605
rfemur -2.67931 17.208 18.6727
rtibia 4.05167
rfoot -11.7566 -21.0573
rtoes 1.7238
lfemur 0.510775 -34.5119 -18.6215
ltibia 1.91247
lfoot -10.1234 36.2919
ltoes -3.21055
300
root -0.130565 17.5221 7.00048 4.89392 3.33085 -3.19382
lowerback 3.09474 -0.882056 7.12792
upperback -9.62939 -0.452307 0.69734
thorax -12.2483 -0.856206 -3.16063
lowerneck -10.3832 -1.72628 -0.349042
upperneck 21.9448 -3.30213 4.11106
head 8.62124 -1.17312 1.09674
rclavicle 2.73329e-015 -1.19271e-014
rhumerus -56.4087 36.6653 -114.811
rradius 86.9731
rwrist -26.9477
rhand 19.2773 -55.0898
rfingers 7.12502
rthumb 43.8613 -79.0242
lclavicle 2.73329e-015 -1.19271e-014
lhumerus -58.872 -24.1139 112.199
lradius 82.2518
lwrist 29.8973
lhand -6.12292 12.3016
lfingers 7.12502
lthumb 19.7142 41.3219
rfemur -2.85013 17.1314 18.1481
rtibia 4.13923
rfoot -11.7059 -20.7427
rtoes 1.1898
lfemur 0.525599 -34.756 -19.1187
ltibia 2.06453
lfoot -10.6282 36.6711
ltoes -1.88969
301
root -0.054864 17.5202 6.99622 4.9384 3.0132 -3.00719
lowerback 3.03665 -0.933724 7.20922
upperback -9.63917 -0.531096 0.596225
thorax -12.2383 -0.908873 -3.30583
lowerneck -10.351 -1.6014 -0.307245
upperneck 22.2212 -3.16444 4.17542
head 8.70661 -1.09433 1.12741
rclavicle -3.32964e-015 9.74045e-015
rhumerus -56.2476 36.8209 -114.899
rradius 86.9437
rwrist -27.0337
rhand 19.8112 -54.9132
rfingers 7.12502
rthumb 44.3591 -78.6608
lclavicle -3.32964e-015 9.74045e-015
lhumerus -58.8475 -24.2157 111.871
lradius 82.5914
lwrist 29.594
lhand -5.98028 12.2051
lfingers 7.12502
lthumb 19.8513 41.2113
rfemur -3.01834 17.0742 17.5371
rtibia 4.21022
rfoot -11.6894 -20.4827
rtoes 0.770697
lfemur 0.558738 -34.9475 -19.7037
ltibia 2.16692
lfoot -10.9029 37.0212
ltoes -1.00419
302
root 0.0170901 17.5173 6.99185 4.97492 2.68751 -2.87113
lowerback 2.97521 -0.939554 7.31423
upperback -9.66267 -0.545998 0.486001
thorax -12.2361 -0.934177 -3.48307
lowerneck -10.1888 -1.53229 -0.293793
upperneck 22.4269 -3.10029 4.26448
head 8.74655 -1.05304 1.16417
rclavicle -2.38542e-015 -7.55382e-015
rhumerus -56.0664 36.769 -114.922
rradius 87.0068
rwrist -27.1409
rhand 20.1609 -54.8853
rfingers 7.12502
rthumb 44.6849 -78.5079
lclavicle -2.38542e-015 -7.55382e-015
lhumerus -58.7893 -24.5353 111.65
lradius 82.8622
lwrist 29.4299
lhand -6.09508 12.0376
lfingers 7.12502
lthumb 19.741 41.0552
rfemur -3.20418 17.0079 17.0094
rtibia 4.31109
rfoot -11.6409 -20.2716
rtoes 0.026183
lfemur 0.641573 -35.2209 -20.2261
ltibia 2.18736
lfoot -11.0935 37.459
ltoes -0.268691
